<svg xmlns="http://www.w3.org/2000/svg" viewBox="0 0 47.5 47.5" enable-background="new 0 0 47.5 47.5"><defs><clipPath id="a"><path d="M0 38h38V0H0v38z"/></clipPath></defs><g><g><g clip-path="url(#a)" transform="matrix(1.25 0 0 -1.25 0 47.5)"><g><path d="M33 30H5c-2.21 0-4-1.79-4-4V11c0-2.21 1.79-4 4-4h11.416c.52-.596 1.477-1 2.584-1s2.064.404 2.584 1H33c2.21 0 4 1.79 4 4v15c0 2.21-1.79 4-4 4" fill="#269"/></g><g><path d="M21 10c0-1.104-.896-2-2-2s-2 .896-2 2v18c0 1.104.896 2 2 2s2-.896 2-2V10z" fill="#292f33"/></g><g><path d="M19 11c0-1.104-.896-2-2-2H5c-1.104 0-2 .896-2 2v18c0 1.104.896 2 2 2h12c1.104 0 2-.896 2-2V11z" fill="#99aab5"/></g><g><path d="M19 11c-1 1.998-3.657 2-4 2-2 0-5-2-8-2-1 0-2 .896-2 2v16c0 1.104 1 2 2 2 3.255 0 6 2 8 2 3 0 4-1.896 4-3V11z" fill="#e1e8ed"/></g><g><path d="M35 11c0-1.104-.896-2-2-2H21c-1.104 0-2 .896-2 2v18c0 1.104.896 2 2 2h12c1.104 0 2-.896 2-2V11z" fill="#99aab5"/></g><g><path d="M19 11c1 1.998 3.657 2 4 2 2 0 5-2 8-2 1 0 2 .896 2 2v16c0 1.104-1 2-2 2-3.256 0-6 2-8 2-3 0-4-1.896-4-3V11z" fill="#ccd6dd"/></g></g></g></g></svg>