<?xml version="1.0" encoding="utf-8"?>
<!-- Generator: Adobe Illustrator 19.2.1, SVG Export Plug-In . SVG Version: 6.00 Build 0)  -->
<svg version="1.1" id="Layer_1" xmlns="http://www.w3.org/2000/svg" xmlns:xlink="http://www.w3.org/1999/xlink" x="0px" y="0px"
	 viewBox="0 0 50 38" style="enable-background:new 0 0 50 50;" xml:space="preserve">
<style type="text/css">
	.st0{fill-rule:evenodd;clip-rule:evenodd;fill:none;}
	.st1{fill:#C0C0C0;}
	.st2{fill:#CB07D6;}
</style>
<rect x="-231" y="-394" class="st0" width="595.3" height="841.9"/>
<g>
	<path class="st1" d="M40.1,36.8L28.9,36c-0.4,0.2-0.8,0.4-1.2,0.5c-0.4,0.1-0.8,0.2-1.1,0.2c-0.4,0-0.8-0.1-1.2-0.2
		S24.5,36.2,24,36l-11.2,0.8V19.1l2.4-0.1l0.9-1.8c1-0.3,1.9-0.5,2.8-0.6c0.9-0.1,1.7-0.2,2.5-0.2c1.4,0,2.4,0.2,3.2,0.5
		c0.8,0.4,1.4,0.9,1.8,1.8c0.4-0.8,1-1.4,1.8-1.8c0.8-0.4,1.9-0.5,3.3-0.5c0.7,0,1.5,0.1,2.4,0.2c0.9,0.1,1.8,0.3,2.8,0.6l0.9,1.7
		l2.5,0.1V36.8z M39.5,36.1V19.6l-1.6-0.1l0.6,1v14.6l-10.2-0.6c-0.5,0.4-1.1,0.6-1.9,0.6c-0.8,0-1.4-0.2-1.9-0.6l-10.2,0.6V20.5
		l0.5-0.9l-1.4,0.1v16.5l10.8-0.8c0.4,0.2,0.8,0.4,1.2,0.5c0.4,0.1,0.8,0.2,1.1,0.2c0.3,0,0.7-0.1,1-0.2c0.4-0.1,0.7-0.3,1.1-0.5
		L39.5,36.1z M15,20.6v13.3l1.3-2.4V18.3L15,20.6z M15.5,34.5l9.3-0.7c0.3,0.3,0.7,0.6,1.4,0.7c-0.1-1.1-0.5-1.8-1.2-2.3
		c-0.7-0.5-1.8-0.7-3.3-0.7c-0.7,0-1.5,0-2.3,0.1c-0.8,0.1-1.7,0.2-2.6,0.4L15.5,34.5z M16.8,31.4c1-0.2,1.9-0.3,2.6-0.4
		c0.8-0.1,1.4-0.1,1.9-0.1c2.2,0,3.8,0.5,4.7,1.6V20.6c0-1.2-0.4-2.1-1.1-2.7c-0.7-0.6-1.9-0.9-3.3-0.9c-0.8,0-1.5,0.1-2.3,0.2
		c-0.8,0.1-1.6,0.3-2.5,0.5V31.4z M36,17.7c-0.9-0.2-1.8-0.4-2.6-0.5c-0.8-0.1-1.5-0.2-2.1-0.2c-1.6,0-2.8,0.3-3.6,1
		c-0.6,0.5-1,1.4-1,2.6v11.9c0.6-0.6,1.2-1,1.9-1.3c0.7-0.2,1.6-0.3,2.7-0.3c0.8,0,1.5,0,2.3,0.1c0.8,0.1,1.6,0.2,2.3,0.4V17.7z
		 M37.5,34.5l-1.2-2.4c-1-0.2-1.9-0.4-2.7-0.5c-0.8-0.1-1.6-0.2-2.3-0.2c-3,0-4.5,1-4.5,3c0.6-0.1,1.1-0.4,1.4-0.8L37.5,34.5z
		 M36.6,18.4v13.1l1.3,2.4V20.8L36.6,18.4z"/>
</g>
<g>
	<path class="st2" d="M39,35.7l-11.2-0.8c-0.4,0.2-0.8,0.4-1.2,0.5c-0.4,0.1-0.8,0.2-1.1,0.2c-0.4,0-0.8-0.1-1.2-0.2
		s-0.9-0.3-1.4-0.5l-11.2,0.8V18.1l2.4-0.1l0.9-1.8c1-0.3,1.9-0.5,2.8-0.6c0.9-0.1,1.7-0.2,2.5-0.2c1.4,0,2.4,0.2,3.2,0.5
		c0.8,0.4,1.4,0.9,1.8,1.8c0.4-0.8,1-1.4,1.8-1.8c0.8-0.4,1.9-0.5,3.3-0.5c0.7,0,1.5,0.1,2.4,0.2c0.9,0.1,1.8,0.3,2.8,0.6l0.9,1.7
		l2.5,0.1V35.7z M38.4,35.1V18.5l-1.6-0.1l0.6,1V34l-10.2-0.6c-0.5,0.4-1.1,0.6-1.9,0.6c-0.8,0-1.4-0.2-1.9-0.6L13.3,34V19.4
		l0.5-0.9l-1.4,0.1v16.5l10.8-0.8c0.4,0.2,0.8,0.4,1.2,0.5c0.4,0.1,0.8,0.2,1.1,0.2c0.3,0,0.7-0.1,1-0.2c0.4-0.1,0.7-0.3,1.1-0.5
		L38.4,35.1z M13.9,19.6v13.3l1.3-2.4V17.3L13.9,19.6z M14.4,33.4l9.3-0.7c0.3,0.3,0.7,0.6,1.4,0.7c-0.1-1.1-0.5-1.8-1.2-2.3
		c-0.7-0.5-1.8-0.7-3.3-0.7c-0.7,0-1.5,0-2.3,0.1c-0.8,0.1-1.7,0.2-2.6,0.4L14.4,33.4z M15.8,30.3c1-0.2,1.9-0.3,2.6-0.4
		c0.8-0.1,1.4-0.1,1.9-0.1c2.2,0,3.8,0.5,4.7,1.6V19.5c0-1.2-0.4-2.1-1.1-2.7c-0.7-0.6-1.9-0.9-3.3-0.9c-0.8,0-1.5,0.1-2.3,0.2
		c-0.8,0.1-1.6,0.3-2.5,0.5V30.3z M34.9,16.6c-0.9-0.2-1.8-0.4-2.6-0.5C31.5,16,30.8,16,30.2,16c-1.6,0-2.8,0.3-3.6,1
		c-0.6,0.5-1,1.4-1,2.6v11.9c0.6-0.6,1.2-1,1.9-1.3c0.7-0.2,1.6-0.3,2.7-0.3c0.8,0,1.5,0,2.3,0.1c0.8,0.1,1.6,0.2,2.3,0.4V16.6z
		 M36.4,33.4L35.2,31c-1-0.2-1.9-0.4-2.7-0.5c-0.8-0.1-1.6-0.2-2.3-0.2c-3,0-4.5,1-4.5,3c0.6-0.1,1.1-0.4,1.4-0.8L36.4,33.4z
		 M35.5,17.3v13.1l1.3,2.4V19.7L35.5,17.3z"/>
</g>
</svg>
