<?xml version="1.0" encoding="utf-8"?>
<!-- Generator: Adobe Illustrator 19.2.1, SVG Export Plug-In . SVG Version: 6.00 Build 0)  -->
<svg version="1.1" id="Layer_1" xmlns="http://www.w3.org/2000/svg" xmlns:xlink="http://www.w3.org/1999/xlink" x="0px" y="0px"
	 viewBox="0 0 50 50" style="enable-background:new 0 0 50 50;" xml:space="preserve">
<style type="text/css">
	.st0{fill:#800000;}
	.st1{fill:#800000;}
</style>
<g>
	<g>
		<path class="st0" d="M42.1,21.7c0.1,0.1,0.1,0.2-0.1,0.2v13.8c0,0.1,0,0.1-0.1,0.2l-1.7,2.1c0,0,0,0,0,0v0c0,0.1-0.1,0.2-0.2,0.2
			c-0.1,0-0.2-0.1-0.2-0.2L39.7,38c-0.2-0.4-0.9-0.9-2.1-1.5c-1.2-0.6-2-0.9-2.5-0.9H35v1.1c0.1,0.3,0.3,0.4,0.8,0.4v4.5
			c0,0.7-0.1,1.1-0.3,1.4c-0.3,0.4-1.1,0.7-2.5,0.7h-9.6v1h-4.1v-1h-1.4V44h-3.3v-7.6h3.3v0.7H19v0l-0.2-0.1
			c-0.2-0.1-0.4-0.3-0.4-0.5c0-0.2,0.1-0.3,0.4-0.2l0.2,0.1v-3.8l-0.2-0.1c-0.2-0.1-0.4-0.3-0.4-0.5c0-0.2,0.1-0.2,0.4-0.2l0.2,0.1
			V28l-0.2-0.1c-0.2-0.1-0.4-0.3-0.4-0.5c0-0.2,0.1-0.2,0.4-0.2l0.2,0.1v-4.2L18.8,23c-0.2-0.1-0.4-0.3-0.4-0.5
			c0-0.2,0.1-0.2,0.4-0.2l0.2,0.1v-1.6h-1.1v0.7h-3.3v-7.5h3.3v0.3h1.4v-1H20V12h-1.7v-0.3h-3.5c-0.6,0.8-1.3,1.1-2.3,1.1
			c-0.8,0-1.5-0.3-2-0.8c-0.6-0.6-0.9-1.2-0.9-2c0-0.8,0.3-1.5,0.9-2c0.6-0.6,1.2-0.9,2-0.9c1.1,0,1.9,0.5,2.5,1.4h3.3V8.2h6v0.3
			h3.7c0.6-0.9,1.4-1.4,2.5-1.4c0.8,0,1.5,0.3,2,0.9c0.6,0.6,0.9,1.2,0.9,2c0,0.8-0.3,1.5-0.9,2c-0.6,0.6-1.2,0.8-2,0.8
			c-1,0-1.7-0.4-2.3-1.1h-3.9V12h-1.6v1.1h0.7v1H33c1,0,1.7,0.1,2.1,0.3c0.5,0.3,0.7,0.9,0.7,1.8v4.5c-0.4,0-0.7,0.1-0.8,0.4
			c0,0,0,0.4,0,1.1h0.3l4.3-2c0,0,0.1-0.2,0.2-0.5c0.1-0.3,0.3-0.4,0.4-0.4c0.1,0,0.2,0.1,0.2,0.3v0c0,0,0,0,0,0L42.1,21.7z
			 M18.4,11V9.3h-3.8c-0.5-0.9-1.1-1.4-2-1.4c-0.6,0-1.1,0.2-1.5,0.6C10.7,9,10.5,9.4,10.5,10c0,0.6,0.2,1.1,0.6,1.5
			s0.9,0.6,1.5,0.6c0.8,0,1.4-0.4,1.9-1.1H18.4z M16.9,20.4v-5.6h-0.3v5.6H16.9z M16.9,43.2v-5.7h-0.3v5.7H16.9z M23.3,24.5
			l-3.9-1.8c-0.2,0-0.2,0.1,0,0.2c0.2,0.1,0.8,0.4,1.8,0.9s1.6,0.7,1.6,0.7H23.3z M23.3,29.4l-3.9-1.8c-0.2,0-0.2,0.1,0,0.3
			c0.2,0.1,0.8,0.4,1.8,0.9c1,0.5,1.6,0.7,1.6,0.7H23.3z M23.3,33.9l-3.9-1.8c-0.2,0-0.2,0.1,0,0.3c0.2,0.1,0.8,0.4,1.8,0.9
			c1,0.5,1.6,0.7,1.6,0.7H23.3z M22.9,24v-3l-1-0.3v2.7L22.9,24z M22.9,28.7v-3.4L21.9,25v3.2L22.9,28.7z M22.9,33.4V30l-0.9-0.4V33
			L22.9,33.4z M22.9,37v-2.4l-0.9-0.5v2.6L22.9,37z M29.2,37.1v-1.5h0c-0.1,0-0.5,0.1-1.3,0.3c-0.8,0.2-1.2,0.3-1.2,0.4l-0.1,0.1
			c-0.2,0.2-0.3,0.2-0.5,0.2c-0.1,0-0.2-0.1-0.2-0.2c-0.1-0.2-0.1-1.1,0-2.8c0.1-2.1,0.2-3.4,0.2-3.9c-0.2-1.8-0.4-4.4-0.6-7.8
			c0-0.8,0.1-1.2,0.2-1.2c0.3,0,0.6,0.2,1.1,0.6c0,0,0.4,0.2,1,0.4c0.7,0.3,1.1,0.4,1.4,0.4v-1.6h-5.3c0,0.1,0,0.1,0,0.2
			c0,0.2-0.1,0.3-0.4,0.2l-0.1,0v3.4l0.1,0.1c0.2,0.2,0.4,0.4,0.4,0.5c0,0.3-0.1,0.4-0.4,0.3l-0.1,0v4.1l0.1,0.1
			c0.2,0.3,0.4,0.4,0.4,0.5c0,0.3-0.1,0.4-0.4,0.3l-0.1,0v3.7l0.1,0.1c0.2,0.3,0.4,0.4,0.4,0.5c0,0.3-0.1,0.4-0.4,0.3l-0.1,0v2.3
			H29.2z M32.6,10c0-0.6-0.2-1.1-0.6-1.5C31.6,8.2,31.1,8,30.6,8c-0.9,0-1.5,0.5-2,1.4h-4.2V11h4.3c0.5,0.8,1.1,1.1,1.9,1.1
			c0.6,0,1.1-0.2,1.5-0.6C32.4,11.1,32.6,10.6,32.6,10z M41.7,28.8v-0.7l-1.8,0.3h-5.8c0.2-0.1,0.5-0.2,0.6-0.3
			c0.5-0.3,0.7-0.6,0.8-0.9c0.1-0.5,0.3-1.2,0.6-1.9l-0.7-0.2c-0.1,0.4-0.3,0.9-0.5,1.6c-0.1,0.3-0.7,0.8-1.7,1.5v-5.5h-0.7V27
			c-0.3-1.4-0.7-2.1-1.2-2.1c-1.4,0-2,0.7-2,2c0,0.6,0.4,1.1,1.1,1.6h-4v0.7h5.3c-1.4,0.5-2.1,1.6-2.1,3.4l0.6,0.1
			c0.1-0.5,0.3-1.1,0.7-1.9c0.2-0.3,0.7-0.7,1.6-1.2v5.6h0.7v-4.3c0.2,1.2,0.8,1.8,1.8,1.8c1,0,1.4-0.6,1.4-1.9c0-0.3-0.3-0.8-1-1.6
			h4.5L41.7,28.8z M34.8,22.4v-0.6h-5.3v0.6H34.8z M34.8,35.9v-0.6h-5.3v0.6H34.8z M32.6,28.4c-0.6-0.1-1.4-0.3-2.2-0.6
			c-0.2-0.2-0.4-0.6-0.4-1.2c0-0.6,0.2-0.9,0.7-0.9C31.4,25.7,32,26.6,32.6,28.4z M34.7,19.9v-4.2c0-0.1-0.7-0.3-2.1-0.6
			c0.5,0.2,1.1,0.5,1.8,0.9v4H34.7z M34.7,38h-0.4v4c-0.1,0.2-0.7,0.5-1.8,0.9c1.4-0.3,2.1-0.5,2.1-0.6V38z M35.6,30.7
			c0,0.6,0,1-0.1,1.1c-0.1,0.1-0.3,0.2-0.6,0.2c-0.6,0-1.2-0.9-1.7-2.8C34.8,29.3,35.6,29.8,35.6,30.7z"/>
	</g>
	<g>
		<path class="st1" d="M40.3,19.9c0.1,0.1,0.1,0.2-0.1,0.2V34c0,0.1,0,0.1-0.1,0.2l-1.7,2.1c0,0,0,0,0,0v0c0,0.1-0.1,0.2-0.2,0.2
			c-0.1,0-0.2-0.1-0.2-0.2l-0.1-0.2c-0.2-0.4-0.9-0.9-2.1-1.5c-1.2-0.6-2-0.9-2.5-0.9h-0.1v1.1c0.1,0.3,0.3,0.4,0.8,0.4v4.5
			c0,0.7-0.1,1.1-0.3,1.4c-0.3,0.4-1.1,0.7-2.5,0.7h-9.6v1h-4.1v-1h-1.4v0.3h-3.3v-7.6h3.3v0.7h1.1v0L17,35.1
			c-0.2-0.1-0.4-0.3-0.4-0.5s0.1-0.3,0.4-0.2l0.2,0.1v-3.8L17,30.6c-0.2-0.1-0.4-0.3-0.4-0.5c0-0.2,0.1-0.2,0.4-0.2l0.2,0.1v-3.8
			L17,26.1c-0.2-0.1-0.4-0.3-0.4-0.5c0-0.2,0.1-0.2,0.4-0.2l0.2,0.1v-4.2L17,21.1c-0.2-0.1-0.4-0.3-0.4-0.5c0-0.2,0.1-0.2,0.4-0.2
			l0.2,0.1v-1.6h-1.1v0.7h-3.3V12h3.3v0.3h1.4v-1h0.7v-1.1h-1.7V9.9H13c-0.6,0.8-1.3,1.1-2.3,1.1c-0.8,0-1.5-0.3-2-0.8
			C8.1,9.7,7.8,9,7.8,8.2c0-0.8,0.3-1.5,0.9-2c0.6-0.6,1.2-0.9,2-0.9c1.1,0,1.9,0.5,2.5,1.4h3.3V6.3h6v0.3h3.7
			c0.6-0.9,1.4-1.4,2.5-1.4c0.8,0,1.5,0.3,2,0.9c0.6,0.6,0.9,1.2,0.9,2c0,0.8-0.3,1.5-0.9,2c-0.6,0.6-1.2,0.8-2,0.8
			c-1,0-1.7-0.4-2.3-1.1h-3.9v0.3h-1.6v1.1h0.7v1h9.6c1,0,1.7,0.1,2.1,0.3c0.5,0.3,0.7,0.9,0.7,1.8v4.5c-0.4,0-0.7,0.1-0.8,0.4
			c0,0,0,0.4,0,1.1h0.3l4.3-2c0,0,0.1-0.2,0.2-0.5c0.1-0.3,0.3-0.4,0.4-0.4c0.1,0,0.2,0.1,0.2,0.3v0c0,0,0,0,0,0L40.3,19.9z
			 M16.5,9.1V7.5h-3.8c-0.5-0.9-1.1-1.4-2-1.4c-0.6,0-1.1,0.2-1.5,0.6C8.8,7.1,8.6,7.6,8.6,8.2c0,0.6,0.2,1.1,0.6,1.5
			c0.4,0.4,0.9,0.6,1.5,0.6c0.8,0,1.4-0.4,1.9-1.1H16.5z M15.1,18.6V13h-0.3v5.6H15.1z M15.1,41.3v-5.7h-0.3v5.7H15.1z M21.5,22.7
			l-3.9-1.8c-0.2,0-0.2,0.1,0,0.2c0.2,0.1,0.8,0.4,1.8,0.9s1.6,0.7,1.6,0.7H21.5z M21.5,27.6l-3.9-1.8c-0.2,0-0.2,0.1,0,0.3
			c0.2,0.1,0.8,0.4,1.8,0.9c1,0.5,1.6,0.7,1.6,0.7H21.5z M21.5,32.1l-3.9-1.8c-0.2,0-0.2,0.1,0,0.3c0.2,0.1,0.8,0.4,1.8,0.9
			s1.6,0.7,1.6,0.7H21.5z M21.1,22.2v-3l-1-0.3v2.7L21.1,22.2z M21,26.9v-3.4l-0.9-0.3v3.2L21,26.9z M21,31.6v-3.4l-0.9-0.4v3.3
			L21,31.6z M21,35.2v-2.4l-0.9-0.5V35L21,35.2z M27.4,35.3v-1.5h0c-0.1,0-0.5,0.1-1.3,0.3c-0.8,0.2-1.2,0.3-1.2,0.4l-0.1,0.1
			c-0.2,0.2-0.3,0.2-0.5,0.2c-0.1,0-0.2-0.1-0.2-0.2c-0.1-0.2-0.1-1.1,0-2.8c0.1-2.1,0.2-3.4,0.2-3.9c-0.2-1.8-0.4-4.4-0.6-7.8
			c0-0.8,0.1-1.2,0.2-1.2c0.3,0,0.6,0.2,1.1,0.6c0,0,0.4,0.2,1,0.4c0.7,0.3,1.1,0.4,1.4,0.4v-1.6H22c0,0.1,0,0.1,0,0.2
			c0,0.2-0.1,0.3-0.4,0.2l-0.1,0v3.4l0.1,0.1c0.2,0.2,0.4,0.4,0.4,0.5c0,0.3-0.1,0.4-0.4,0.3l-0.1,0v4.1l0.1,0.1
			c0.2,0.3,0.4,0.4,0.4,0.5c0,0.3-0.1,0.4-0.4,0.3l-0.1,0V32l0.1,0.1c0.2,0.3,0.4,0.4,0.4,0.5c0,0.3-0.1,0.4-0.4,0.3l-0.1,0v2.3
			H27.4z M30.8,8.2c0-0.6-0.2-1.1-0.6-1.5c-0.4-0.4-0.9-0.6-1.5-0.6c-0.9,0-1.5,0.5-2,1.4h-4.2v1.7h4.3c0.5,0.8,1.1,1.1,1.9,1.1
			c0.6,0,1.1-0.2,1.5-0.6C30.6,9.3,30.8,8.8,30.8,8.2z M39.9,27v-0.7l-1.8,0.3h-5.8c0.2-0.1,0.5-0.2,0.6-0.3
			c0.5-0.3,0.7-0.6,0.8-0.9c0.1-0.5,0.3-1.2,0.6-1.9l-0.7-0.2c-0.1,0.4-0.3,0.9-0.5,1.6c-0.1,0.3-0.7,0.8-1.7,1.5v-5.5h-0.7v4.3
			C30.4,23.7,30,23,29.5,23c-1.4,0-2,0.7-2,2c0,0.6,0.4,1.1,1.1,1.6h-4v0.7h5.3c-1.4,0.5-2.1,1.6-2.1,3.4l0.6,0.1
			c0.1-0.5,0.3-1.1,0.7-1.9c0.2-0.3,0.7-0.7,1.6-1.3v5.6h0.7V29c0.2,1.2,0.8,1.8,1.8,1.8c1,0,1.4-0.6,1.4-1.9c0-0.3-0.3-0.8-1-1.6
			h4.5L39.9,27z M33,20.5V20h-5.3v0.6H33z M33,34.1v-0.6h-5.3v0.6H33z M30.8,26.6c-0.6-0.1-1.4-0.3-2.2-0.6
			c-0.2-0.2-0.4-0.6-0.4-1.2c0-0.6,0.2-0.9,0.7-0.9C29.6,23.8,30.2,24.7,30.8,26.6z M32.8,18v-4.2c0-0.1-0.7-0.3-2.1-0.6
			c0.5,0.2,1.1,0.5,1.8,0.9v4H32.8z M32.8,36.2h-0.4v4c-0.1,0.2-0.7,0.5-1.8,0.9c1.4-0.3,2.1-0.5,2.1-0.6V36.2z M33.8,28.8
			c0,0.6,0,1-0.1,1.1c-0.1,0.1-0.3,0.2-0.6,0.2c-0.6,0-1.2-0.9-1.7-2.8C33,27.5,33.8,28,33.8,28.8z"/>
	</g>
</g>
</svg>
