<svg xmlns="http://www.w3.org/2000/svg" viewBox="0 0 47.5 47.5" enable-background="new 0 0 47.5 47.5"><defs><clipPath id="a"><path d="M0 38h38V0H0v38z"/></clipPath></defs><g><g><g clip-path="url(#a)" transform="matrix(1.25 0 0 -1.25 0 47.5)"><g><path d="M30 25.94c0-6.44-5-7.44-5-13.44 0-3.098-3.123-3.36-5.5-3.36-2.053 0-6.586.78-6.586 3.362 0 6-4.914 7-4.914 13.438 0 6.03 5.285 10.92 11.083 10.92 5.8 0 10.917-4.89 10.917-10.92" fill="#ffd983"/></g><g><path d="M23.167 4.5c0-.828-2.234-2.5-4.167-2.5-1.933 0-4.166 1.672-4.166 2.5 0 .828 2.233.5 4.166.5 1.933 0 4.167.328 4.167-.5" fill="#ccd6dd"/></g><g><path d="M23.707 26.707c-.39.39-1.023.39-1.414 0L19 23.414l-3.293 3.293c-.39.39-1.023.39-1.414 0-.39-.39-.39-1.023 0-1.414L18 21.586V11c0-.553.448-1 1-1s1 .447 1 1v10.586l3.707 3.707c.39.39.39 1.023 0 1.414" fill="#ffcc4d"/></g><g><path d="M25 6c0-1.104-.896-2-2-2h-8c-1.104 0-2 .896-2 2v6h12V6z" fill="#99aab5"/></g><g><path d="M13 5c-.48 0-.905.347-.986.836-.09.544.277 1.06.82 1.15l12.002 2c.544.098 1.06-.277 1.15-.822.09-.544-.277-1.06-.822-1.15l-12-2C13.11 5.004 13.055 5 13 5" fill="#ccd6dd"/></g><g><path d="M13 9c-.48 0-.905.347-.986.836-.09.544.277 1.06.82 1.15l12.002 2c.544.097 1.06-.277 1.15-.822.09-.544-.277-1.06-.822-1.15l-12-2C13.11 9.004 13.055 9 13 9" fill="#ccd6dd"/></g></g></g></g></svg>