<svg xmlns="http://www.w3.org/2000/svg" viewBox="0 0 47.5 47.5" enable-background="new 0 0 47.5 47.5"><defs><clipPath id="a"><path d="M0 38h38V0H0v38z"/></clipPath></defs><g><g><g clip-path="url(#a)" transform="matrix(1.25 0 0 -1.25 0 47.5)"><g><path d="M37 15c0-2.21-1.79-4-4-4H5c-2.21 0-4 1.79-4 4v18c0 2.21 1.79 4 4 4h28c2.21 0 4-1.79 4-4V15z" fill="#ccd6dd"/></g><path d="M33 15H5v18h28V15z" fill="#5dadec"/><path d="M24 5H14v6h10V5z" fill="#ccd6dd"/><path d="M24 9H14v2h10V9z" fill="#9aaab4"/><g><path d="M37 4c0 1.657-1.343 3-3 3H4C2.343 7 1 5.657 1 4s1.343-3 3-3h30c1.657 0 3 1.343 3 3" fill="#e1e8ed"/></g><path d="M6 3H4v2h2V3z" fill="#f5f8fa"/><path d="M10 3H8v2h2V3z" fill="#f5f8fa"/><path d="M14 3h-2v2h2V3z" fill="#f5f8fa"/><path d="M18 3h-2v2h2V3z" fill="#f5f8fa"/><path d="M22 3h-2v2h2V3z" fill="#f5f8fa"/><path d="M26 3h-2v2h2V3z" fill="#f5f8fa"/><path d="M30 3h-2v2h2V3z" fill="#f5f8fa"/><path d="M34 3h-2v2h2V3z" fill="#f5f8fa"/></g></g></g></svg>