<svg xmlns="http://www.w3.org/2000/svg" viewBox="0 0 47.5 47.5" enable-background="new 0 0 47.5 47.5"><defs><clipPath id="a"><path d="M0 38h38V0H0v38z"/></clipPath></defs><g><g><g clip-path="url(#a)" transform="matrix(1.25 0 0 -1.25 0 47.5)"><g><path d="M22 19c0 2 3.246 3.37 5 6 2 3 2 10 2 10H9s0-7 2-10c1.753-2.63 5-4 5-6s-3.247-3.37-5-6C9 10 9 3 9 3h20s0 7-2 10c-1.754 2.63-5 4-5 6" fill="#ffe8b6"/></g><g><path d="M19 35h-8s0-4 1-7c1.303-3.91 6-5 6-9s0-13 1-13 1 9 1 13 4.697 5.09 6 9c1 3 1 7 1 7h-8z" fill="#ffac33"/></g><g><path d="M31 3c0-1.104-.896-2-2-2H9c-1.104 0-2 .896-2 2s.896 2 2 2h20c1.104 0 2-.896 2-2" fill="#3b88c3"/></g><g><path d="M31 35c0-1.104-.896-2-2-2H9c-1.104 0-2 .896-2 2s.896 2 2 2h20c1.104 0 2-.896 2-2" fill="#3b88c3"/></g></g></g></g></svg>