<?xml version="1.0" encoding="utf-8"?>
<!-- Generator: Adobe Illustrator 19.2.1, SVG Export Plug-In . SVG Version: 6.00 Build 0)  -->
<svg version="1.1" id="Layer_1" xmlns="http://www.w3.org/2000/svg" xmlns:xlink="http://www.w3.org/1999/xlink" x="0px" y="0px"
	 viewBox="0 0 50 50" style="enable-background:new 0 0 50 50;" xml:space="preserve">
<style type="text/css">
	.st0{fill-rule:evenodd;clip-rule:evenodd;fill:none;}
	.st1{fill:#C0C0C0;}
	.st2{fill:#660033;}
</style>
<rect x="-70.2" y="-198.5" class="st0" width="595.3" height="841.9"/>
<g>
	<path class="st1" d="M28.1,12.3l3.5,10.9h11.5l-9.3,6.7l3.5,10.9h-3.2L24.9,34l-9.3,6.7l3.5-10.9L10,23.1h11.4l3.5-10.9H28.1z
		 M13.2,24.2l7.3,5.3L17.7,38l7.3-5.3l7.3,5.3l-2.8-8.5l7.2-5.3h-9l-2.8-8.5l-2.8,8.5H13.2z"/>
</g>
<g>
	<path class="st2" d="M26.3,10.4l3.5,10.9h11.5L32,28l3.5,10.9h-3.2l-9.3-6.7l-9.3,6.7L17.4,28l-9.2-6.7h11.4l3.5-10.9H26.3z
		 M11.4,22.3l7.3,5.3l-2.8,8.5l7.3-5.3l7.3,5.3l-2.8-8.5l7.2-5.3h-9l-2.8-8.5l-2.8,8.5H11.4z"/>
</g>
<rect x="-231" y="-394" class="st0" width="595.3" height="841.9"/>
</svg>
