<svg width="50" height="50" xmlns="http://www.w3.org/2000/svg">
 <style type="text/css">.st0{fill-rule:evenodd;clip-rule:evenodd;fill:none;}
	.st1{fill:#800000;}
	.st2{fill:#800000;}</style>

 <g>
  <title>background</title>
  <rect fill="none" id="canvas_background" height="402" width="582" y="-1" x="-1"/>
 </g>
 <g>
  <title>Layer 1</title>
  <rect id="svg_1" height="841.9" width="50" class="st0" y="-394" x="-231"/>
  <g stroke="null" id="svg_2">
   <g stroke="null" id="svg_3">
    <path stroke="null" id="svg_4" d="m49.715068,23.701725l-35.568888,6.239966l-4.029972,-3.899979c0,-0.389998 0.175216,-0.779996 0.525649,-0.779996l12.790782,-3.70498c-0.175216,-0.584997 -0.525649,-0.779996 -0.876081,-0.584997l-12.615566,3.509981c-0.525649,0.194999 -0.700865,0.389998 -0.876081,0.974995l-6.307783,-6.044967l0,-0.584997l23.654186,-2.144988l23.128538,6.239966l0,0.779996l0.175216,0zm-40.825374,1.75499c0,0.584997 0,1.169994 0,1.75499l0,2.144988c-1.051297,0 -2.102594,0.194999 -2.978675,0.584997c0.175216,-0.584997 0.700865,-1.75499 1.576946,-3.509981c0.350432,-0.389998 0.700865,-0.779996 1.226513,-1.364993l0.175216,0.389998zm4.029972,22.619877l-0.175216,0.389998l-0.876081,-1.949989l0.525649,2.534986l-0.525649,0.389998l-0.700865,-2.339987l0,2.729985l-0.525649,0.194999l-0.350432,-2.729985l-0.175216,2.729985l-0.525649,0l-0.175216,-2.729985l-0.175216,2.534986l-0.525649,0l-0.175216,-2.729985l-0.350432,2.729985l-0.700865,-0.194999l0,-2.729985l-0.700865,2.339987l-0.525649,-0.389998l0.525649,-2.534986l-0.876081,1.949989l-0.175216,-0.389998l0.876081,-2.924984c0.175216,0.974995 1.051297,1.559992 2.628243,1.559992c1.576946,0 2.453027,-0.584997 2.628243,-1.559992l1.051297,3.119983zm-1.051297,-3.119983c-0.175216,0.974995 -1.051297,1.364993 -2.453027,1.364993c-1.576946,0 -2.277811,-0.389998 -2.453027,-1.364993c0.175216,-0.389998 0.350432,-0.779996 0.876081,-1.364993c0.175216,-0.194999 0.525649,-0.389998 1.051297,-0.389998c0,0.194999 0.175216,0.389998 0.525649,0.389998c0.350432,0 0.525649,-0.194999 0.525649,-0.389998c0.350432,0.194999 0.700865,0.194999 1.051297,0.389998c0.350432,0 0.700865,0.584997 0.876081,1.364993zm11.213837,-23.399873l-12.790782,3.70498c-0.350432,0 -0.525649,0.389998 -0.525649,0.974995l0,16.964908c-0.175216,0.194999 -0.175216,0.194999 -0.350432,0.194999c-0.175216,0 -0.350432,0 -0.350432,-0.194999l0,-15.794914c0,-0.974995 0,-1.559992 0,-1.75499c0.175216,-0.584997 0.350432,-0.974995 0.700865,-1.169994c1.927378,-0.584997 6.132567,-1.75499 12.615566,-3.509981c0.350432,0 0.525649,0.194999 0.700865,0.584997zm20.850727,16.964908c-3.153892,-4.289977 -6.833432,-6.434965 -11.213837,-6.434965c-0.876081,0 -1.752162,0 -2.453027,0.194999c-5.256486,0.974995 -9.812107,4.289977 -13.491647,9.554948c-0.175216,-1.559992 -0.350432,-2.924984 -0.700865,-4.289977c-0.876081,-3.119983 -2.102594,-5.654969 -3.854756,-7.214961c-0.700865,-0.584997 -1.226513,-0.974995 -2.102594,-0.974995l0,-3.119983l4.205189,3.899979l24.8807,-4.094978c0.525649,0.389998 1.576946,1.559992 2.978675,3.119983c1.40173,2.339987 2.102594,5.45997 1.752162,9.359949z" class="st1"/>
   </g>
   <g stroke="null" id="svg_5">
    <path stroke="null" id="svg_6" d="m47.262041,21.166739l-35.393671,6.239966l-4.205189,-3.70498c0,-0.389998 0.175216,-0.779996 0.525649,-0.779996l12.790782,-3.70498c-0.175216,-0.584997 -0.525649,-0.779996 -0.876081,-0.584997l-12.615566,3.119983c-0.525649,0.194999 -0.700865,0.389998 -0.876081,0.974995l-6.307783,-6.044967l0,-0.584997l23.654186,-2.144988l23.303754,6.239966l0,0.974995zm-40.650157,1.75499c0,0.584997 0,1.169994 0,1.75499l0,2.144988c-1.051297,0 -2.102594,0.194999 -2.978675,0.584997c0.175216,-0.584997 0.700865,-1.75499 1.576946,-3.509981c0.350432,-0.389998 0.700865,-0.779996 1.226513,-1.364993l0.175216,0.389998zm4.029972,22.619877l-0.175216,0.389998l-0.876081,-1.949989l0.525649,2.534986l-0.525649,0.389998l-0.700865,-2.339987l0,2.729985l-0.525649,0.194999l-0.350432,-2.729985l-0.175216,2.729985l-0.525649,0l-0.175216,-2.729985l-0.175216,2.729985l-0.525649,0l-0.175216,-2.729985l-0.525649,2.339987l-0.525649,-0.194999l0,-2.729985l-0.700865,2.339987l-0.525649,-0.389998l0.525649,-2.534986l-0.876081,1.949989l0,0l0.876081,-2.924984c0.175216,0.974995 1.051297,1.559992 2.628243,1.559992c1.576946,0 2.453027,-0.584997 2.628243,-1.559992l0.876081,2.924984zm-1.051297,-3.314982c-0.175216,0.974995 -1.051297,1.364993 -2.453027,1.364993c-1.576946,0 -2.277811,-0.389998 -2.453027,-1.364993c0.175216,-0.389998 0.350432,-0.779996 0.876081,-1.364993c0.175216,-0.194999 0.525649,-0.389998 1.051297,-0.389998c0,0.194999 0.175216,0.389998 0.525649,0.389998c0.350432,0 0.525649,-0.194999 0.525649,-0.389998c0.350432,0.194999 0.700865,0.194999 1.051297,0.389998c0.350432,0.194999 0.525649,0.779996 0.876081,1.364993zm11.213837,-23.204874l-12.790782,3.70498c-0.350432,0 -0.525649,0.389998 -0.525649,0.974995l0,16.964908c-0.175216,0.194999 -0.175216,0.194999 -0.350432,0.194999c-0.175216,0 -0.350432,0 -0.350432,-0.194999l0,-15.794914c0,-0.974995 0,-1.559992 0,-1.75499c0.175216,-0.584997 0.350432,-0.974995 0.700865,-1.169994c1.927378,-0.584997 6.132567,-1.75499 12.615566,-3.509981c0.350432,0 0.525649,0 0.700865,0.584997zm20.850727,16.964908c-3.153892,-4.289977 -6.833432,-6.434965 -11.213837,-6.434965c-0.876081,0 -1.752162,0 -2.453027,0.194999c-5.256486,0.974995 -9.812107,4.289977 -13.491647,9.554948c-0.175216,-1.559992 -0.350432,-2.924984 -0.700865,-4.289977c-0.876081,-3.119983 -2.102594,-5.654969 -3.854756,-7.214961c-0.700865,-0.584997 -1.226513,-0.974995 -2.102594,-0.974995l0,-3.119983l4.205189,3.899979l25.055916,-4.484976c0.525649,0.389998 1.576946,1.559992 2.978675,3.119983c1.226513,2.534986 1.752162,5.654969 1.576946,9.749947z" class="st2"/>
   </g>
  </g>
 </g>
</svg>